<svg width="359" height="73" fill="none" xmlns="http://www.w3.org/2000/svg"><path d="M.07 20 5.3 6h3.85l5.28 14h-3.74l-.99-2.84H4.68L3.71 20H.07Zm5.36-5.61h3.5L7.17 9.55l-1.74 4.84ZM16.142 20V6h5.42c1.427 0 2.567.3 3.42.9.854.593 1.28 1.477 1.28 2.65 0 .427-.087.82-.26 1.18-.173.36-.41.68-.71.96a3.67 3.67 0 0 1-.99.66c.753.267 1.36.71 1.82 1.33.467.62.7 1.357.7 2.21 0 .833-.21 1.557-.63 2.17-.413.613-1.003 1.09-1.77 1.43-.767.34-1.677.51-2.73.51h-5.55Zm3.32-2.45h1.75c.72 0 1.26-.147 1.62-.44.36-.293.54-.733.54-1.32 0-.56-.173-.993-.52-1.3-.34-.313-.85-.47-1.53-.47h-1.86v3.53Zm0-5.81h1.65c.4 0 .744-.067 1.03-.2.294-.133.517-.327.67-.58.16-.253.24-.557.24-.91 0-.513-.173-.91-.52-1.19-.34-.28-.83-.42-1.47-.42h-1.6v3.3ZM31.766 20V9.03h-3.73V6h10.8v3.03h-3.73V20h-3.34Zm15.195.3c-1.073 0-2.067-.183-2.98-.55a7.34 7.34 0 0 1-2.37-1.55 7.038 7.038 0 0 1-1.57-2.32 7.463 7.463 0 0 1-.55-2.88c0-1.04.183-2.003.55-2.89a7.038 7.038 0 0 1 1.57-2.32 7.208 7.208 0 0 1 2.37-1.54c.913-.367 1.907-.55 2.98-.55 1.08 0 2.073.187 2.98.56a7.257 7.257 0 0 1 2.37 1.56 7.016 7.016 0 0 1 1.56 2.33c.373.88.56 1.83.56 2.85a7.345 7.345 0 0 1-.56 2.88 6.908 6.908 0 0 1-1.56 2.32 7.338 7.338 0 0 1-2.37 1.55c-.907.367-1.9.55-2.98.55Zm0-3.12c.58 0 1.11-.097 1.59-.29a3.643 3.643 0 0 0 2.1-2.16c.2-.52.3-1.097.3-1.73 0-.853-.173-1.593-.52-2.22a3.583 3.583 0 0 0-1.42-1.45c-.6-.347-1.283-.52-2.05-.52-.573 0-1.103.1-1.59.3-.487.193-.91.473-1.27.84-.353.367-.63.807-.83 1.32-.2.513-.3 1.09-.3 1.73 0 .847.173 1.583.52 2.21a3.74 3.74 0 0 0 1.42 1.46c.607.34 1.29.51 2.05.51Zm16.58 3.12c-1.447 0-2.724-.297-3.83-.89a6.41 6.41 0 0 1-2.59-2.52c-.62-1.087-.93-2.37-.93-3.85 0-1.08.18-2.067.54-2.96.366-.9.88-1.677 1.54-2.33a6.94 6.94 0 0 1 2.35-1.51c.906-.36 1.896-.54 2.97-.54 1.166 0 2.146.147 2.94.44.792.293 1.51.71 2.15 1.25l-1.66 2.73a3.574 3.574 0 0 0-1.4-.89c-.547-.2-1.15-.3-1.81-.3-.654 0-1.237.097-1.75.29a3.61 3.61 0 0 0-1.3.81c-.354.353-.624.78-.81 1.28-.188.5-.28 1.06-.28 1.68 0 .853.166 1.583.5 2.19.34.607.822 1.073 1.45 1.4.626.32 1.376.48 2.25.48.626 0 1.246-.093 1.86-.28a5.605 5.605 0 0 0 1.76-.93l1.52 2.79c-.647.5-1.42.903-2.32 1.21-.9.3-1.95.45-3.15.45Zm9.944-.3V9.03h-3.73V6h10.8v3.03h-3.73V20h-3.34Zm9.103 0V6h9.84v2.88h-6.52v2.6h5.47v2.66h-5.47v2.95h6.6V20h-9.92Zm21.305 0-5.63-7.24 5.09-6.76h4.14l-5.18 6.75 5.85 7.25h-4.27Zm-8.61 0V6h3.32v5.19h2.64v3.03h-2.64V20h-3.32Zm14.458.27-1.08-3.03c.446-.14.826-.297 1.14-.47.32-.18.583-.417.79-.71.206-.3.366-.697.48-1.19.12-.493.2-1.12.24-1.88a48.4 48.4 0 0 0 .07-2.83V6h10.55v14h-3.32V9.03h-4.09v.98c0 1.433-.047 2.68-.14 3.74-.087 1.06-.237 1.967-.45 2.72-.214.753-.504 1.38-.87 1.88-.367.5-.824.903-1.37 1.21-.54.307-1.19.543-1.95.71Zm22.083.03c-1.073 0-2.066-.183-2.98-.55a7.353 7.353 0 0 1-2.37-1.55 7.051 7.051 0 0 1-1.57-2.32 7.475 7.475 0 0 1-.55-2.88 7.5 7.5 0 0 1 .55-2.89 7.052 7.052 0 0 1 1.57-2.32 7.22 7.22 0 0 1 2.37-1.54c.914-.367 1.907-.55 2.98-.55 1.08 0 2.074.187 2.98.56a7.25 7.25 0 0 1 2.37 1.56 6.998 6.998 0 0 1 1.56 2.33c.374.88.56 1.83.56 2.85a7.334 7.334 0 0 1-.56 2.88 6.89 6.89 0 0 1-1.56 2.32 7.332 7.332 0 0 1-2.37 1.55c-.906.367-1.9.55-2.98.55Zm0-3.12c.58 0 1.11-.097 1.59-.29a3.64 3.64 0 0 0 2.1-2.16c.2-.52.3-1.097.3-1.73 0-.853-.173-1.593-.52-2.22a3.581 3.581 0 0 0-1.42-1.45c-.6-.347-1.283-.52-2.05-.52-.573 0-1.103.1-1.59.3a3.65 3.65 0 0 0-1.27.84c-.353.367-.63.807-.83 1.32-.2.513-.3 1.09-.3 1.73 0 .847.174 1.583.52 2.21.347.627.82 1.113 1.42 1.46.607.34 1.29.51 2.05.51Z" fill="#1D79D3"/><path d="M157.13 20.3c-1.447 0-2.723-.297-3.83-.89a6.409 6.409 0 0 1-2.59-2.52c-.62-1.087-.93-2.37-.93-3.85 0-1.08.18-2.067.54-2.96.367-.9.88-1.677 1.54-2.33a6.945 6.945 0 0 1 2.35-1.51c.907-.36 1.897-.54 2.97-.54 1.167 0 2.147.147 2.94.44a7.16 7.16 0 0 1 2.15 1.25l-1.66 2.73a3.573 3.573 0 0 0-1.4-.89c-.547-.2-1.15-.3-1.81-.3-.653 0-1.237.097-1.75.29-.507.187-.94.457-1.3.81-.353.353-.623.78-.81 1.28-.187.5-.28 1.06-.28 1.68 0 .853.167 1.583.5 2.19.34.607.823 1.073 1.45 1.4.627.32 1.377.48 2.25.48.627 0 1.247-.093 1.86-.28a5.6 5.6 0 0 0 1.76-.93l1.52 2.79c-.647.5-1.42.903-2.32 1.21-.9.3-1.95.45-3.15.45Zm7.485-.3V6h9.84v2.88h-6.52v2.6h5.47v2.66h-5.47v2.95h6.6V20h-9.92Zm12.695 0V6h5.61c1.047 0 1.973.183 2.78.55.807.36 1.44.887 1.9 1.58.467.693.7 1.527.7 2.5 0 .987-.213 1.823-.64 2.51-.427.687-1.047 1.21-1.86 1.57-.813.36-1.8.54-2.96.54h-2.21V20h-3.32Zm3.32-7.53h2.13c.7 0 1.243-.137 1.63-.41.393-.28.59-.74.59-1.38 0-.64-.203-1.103-.61-1.39-.4-.293-.93-.44-1.59-.44h-2.15v3.62Zm9.825 7.53V6h5.42c1.426 0 2.566.3 3.42.9.853.593 1.28 1.477 1.28 2.65 0 .427-.087.82-.26 1.18-.174.36-.41.68-.71.96a3.693 3.693 0 0 1-.99.66c.753.267 1.36.71 1.82 1.33.466.62.7 1.357.7 2.21 0 .833-.21 1.557-.63 2.17-.414.613-1.004 1.09-1.77 1.43-.767.34-1.677.51-2.73.51h-5.55Zm3.32-2.45h1.75c.72 0 1.26-.147 1.62-.44.36-.293.54-.733.54-1.32 0-.56-.174-.993-.52-1.3-.34-.313-.85-.47-1.53-.47h-1.86v3.53Zm0-5.81h1.65c.4 0 .743-.067 1.03-.2.293-.133.516-.327.67-.58.16-.253.24-.557.24-.91 0-.513-.174-.91-.52-1.19-.34-.28-.83-.42-1.47-.42h-1.6v3.3Zm9.844 8.26V6h3.29v8.75l5.67-8.75h3.3v14h-3.29v-8.86l-5.69 8.86h-3.28Zm22.046.3c-1.447 0-2.723-.297-3.83-.89a6.409 6.409 0 0 1-2.59-2.52c-.62-1.087-.93-2.37-.93-3.85 0-1.08.18-2.067.54-2.96.367-.9.88-1.677 1.54-2.33a6.945 6.945 0 0 1 2.35-1.51c.907-.36 1.897-.54 2.97-.54 1.167 0 2.147.147 2.94.44a7.16 7.16 0 0 1 2.15 1.25l-1.66 2.73a3.573 3.573 0 0 0-1.4-.89c-.547-.2-1.15-.3-1.81-.3-.653 0-1.237.097-1.75.29-.507.187-.94.457-1.3.81-.353.353-.623.78-.81 1.28-.187.5-.28 1.06-.28 1.68 0 .853.167 1.583.5 2.19.34.607.823 1.073 1.45 1.4.627.32 1.377.48 2.25.48.627 0 1.247-.093 1.86-.28a5.6 5.6 0 0 0 1.76-.93l1.52 2.79c-.647.5-1.42.903-2.32 1.21-.9.3-1.95.45-3.15.45Z" fill="#EB2D1A"/><path stroke="#000" stroke-opacity=".14" d="M240.5 5.5v14"/><path d="M250.21 24.49c-.32 0-.637-.04-.95-.12a3.298 3.298 0 0 1-.95-.4l.43-1.59c.207.133.43.233.67.3.24.067.453.1.64.1.493 0 .877-.12 1.15-.36.273-.24.493-.607.66-1.1l.39-1.12-3.88-10h2.02l2.9 7.9 2.83-7.9h1.95l-4.29 11.36c-.293.773-.62 1.37-.98 1.79-.353.427-.743.723-1.17.89-.427.167-.9.25-1.42.25ZM263.573 20l5.51-14h1.95l5.68 14h-2.12l-1.39-3.51h-6.24l-1.33 3.51h-2.06Zm3.92-5.15h5.16l-2.64-6.52-2.52 6.52Zm10.972 5.3-.68-1.69c.687-.173 1.187-.45 1.5-.83.314-.387.514-.93.6-1.63.087-.7.13-1.61.13-2.73V10.2h7.73V20h-1.84v-8.24h-4.15v1.51a23.81 23.81 0 0 1-.14 2.78c-.086.78-.25 1.44-.49 1.98-.233.54-.566.983-1 1.33-.426.34-.98.603-1.66.79Zm12.453-.15v-9.8h1.84v8.34h2.06c.793 0 1.387-.147 1.78-.44.4-.3.6-.75.6-1.35 0-.587-.187-1.037-.56-1.35-.367-.313-.913-.47-1.64-.47h-2.53v-1.45h2.66c1.24 0 2.213.283 2.92.85.713.56 1.07 1.367 1.07 2.42 0 .687-.173 1.273-.52 1.76-.347.48-.83.85-1.45 1.11-.62.253-1.343.38-2.17.38h-4.06Zm15.033.3c-.827 0-1.57-.14-2.23-.42a4.55 4.55 0 0 1-1.69-1.23c-.46-.54-.814-1.2-1.06-1.98-.24-.78-.36-1.67-.36-2.67 0-1.093.08-2.077.24-2.95.16-.873.42-1.63.78-2.27a4.725 4.725 0 0 1 1.42-1.59c.593-.42 1.32-.72 2.18-.9l4.69-.99.32 1.64-4.56.93c-.814.18-1.45.467-1.91.86-.46.387-.797.877-1.01 1.47-.214.593-.354 1.287-.42 2.08.42-.62.953-1.117 1.6-1.49.653-.38 1.42-.57 2.3-.57.946 0 1.776.227 2.49.68a4.72 4.72 0 0 1 1.69 1.8c.406.747.61 1.573.61 2.48 0 .7-.12 1.36-.36 1.98a4.912 4.912 0 0 1-1.04 1.64c-.454.467-.99.833-1.61 1.1-.62.267-1.31.4-2.07.4Zm-.05-1.66c.626 0 1.186-.14 1.68-.42.493-.287.88-.687 1.16-1.2.28-.513.42-1.12.42-1.82 0-.707-.14-1.317-.42-1.83a2.978 2.978 0 0 0-1.16-1.19c-.487-.28-1.047-.42-1.68-.42-.634 0-1.197.14-1.69.42-.494.28-.88.677-1.16 1.19-.28.513-.42 1.123-.42 1.83 0 .7.14 1.307.42 1.82.28.513.666.913 1.16 1.2.493.28 1.056.42 1.69.42Zm12.044 1.66c-1.04 0-1.956-.217-2.75-.65a4.72 4.72 0 0 1-1.86-1.81c-.446-.78-.67-1.687-.67-2.72 0-.747.127-1.44.38-2.08.26-.64.62-1.193 1.08-1.66a5.038 5.038 0 0 1 1.63-1.09 5.273 5.273 0 0 1 2.04-.39c.794 0 1.5.14 2.12.42.627.28 1.144.673 1.55 1.18.414.5.71 1.09.89 1.77.18.673.217 1.407.11 2.2h-7.98c-.02.653.114 1.227.4 1.72.287.487.7.867 1.24 1.14.547.273 1.194.41 1.94.41.547 0 1.08-.087 1.6-.26.52-.173.98-.43 1.38-.77l.78 1.37c-.32.26-.7.483-1.14.67-.433.18-.886.317-1.36.41-.473.093-.933.14-1.38.14Zm-3.36-6.26h6.04c-.026-.827-.283-1.47-.77-1.93-.486-.467-1.183-.7-2.09-.7-.88 0-1.606.233-2.18.7-.573.46-.906 1.103-1 1.93Zm10.259 10.16v-14h1.69v1.47c.407-.52.917-.943 1.53-1.27.62-.333 1.4-.5 2.34-.5.973 0 1.83.23 2.57.69a4.698 4.698 0 0 1 1.73 1.86c.42.787.63 1.67.63 2.65 0 .713-.12 1.387-.36 2.02a5.02 5.02 0 0 1-1.01 1.66 4.82 4.82 0 0 1-1.57 1.12c-.6.267-1.27.4-2.01.4-.827 0-1.55-.153-2.17-.46a4.743 4.743 0 0 1-1.54-1.23v5.59h-1.83Zm5.23-5.56c.66 0 1.243-.143 1.75-.43a3.092 3.092 0 0 0 1.2-1.23c.293-.533.44-1.16.44-1.88 0-.727-.147-1.353-.44-1.88a3.01 3.01 0 0 0-1.2-1.23c-.507-.287-1.09-.43-1.75-.43-.66 0-1.247.143-1.76.43a3.086 3.086 0 0 0-1.2 1.23c-.293.527-.44 1.153-.44 1.88 0 .72.147 1.347.44 1.88.293.527.693.937 1.2 1.23.513.287 1.1.43 1.76.43Zm9.833 1.36v-8.24h-3.36V10.2h8.57v1.56h-3.37V20h-1.84Zm11.47.3c-.986 0-1.86-.23-2.62-.69a4.87 4.87 0 0 1-1.78-1.86c-.426-.787-.64-1.67-.64-2.65 0-.733.124-1.417.37-2.05a4.978 4.978 0 0 1 1.04-1.65c.447-.473.977-.84 1.59-1.1.62-.267 1.3-.4 2.04-.4.987 0 1.807.207 2.46.62a4.49 4.49 0 0 1 1.53 1.58l-.27.4v-2.3h1.68V20h-1.68v-2.3l.27.39a4.574 4.574 0 0 1-1.53 1.59c-.653.413-1.473.62-2.46.62Zm.2-1.66c.654 0 1.234-.143 1.74-.43a3.1 3.1 0 0 0 1.19-1.23c.294-.533.44-1.16.44-1.88 0-.727-.146-1.353-.44-1.88a3.018 3.018 0 0 0-1.19-1.23c-.506-.287-1.086-.43-1.74-.43-.653 0-1.233.143-1.74.43a3.099 3.099 0 0 0-1.2 1.23c-.293.527-.44 1.153-.44 1.88 0 .72.147 1.347.44 1.88.294.527.694.937 1.2 1.23.507.287 1.087.43 1.74.43Z" fill="#373737"/><path d="M1.367 50v-9.994h7.445V50H7.663v-8.969H2.53V50H1.367Zm13.549-7.629c.934 0 1.68.321 2.235.964.556.642.834 1.609.834 2.898 0 .853-.127 1.568-.383 2.147-.255.579-.615 1.016-1.08 1.312-.46.297-1.004.445-1.633.445-.397 0-.745-.053-1.046-.157a2.468 2.468 0 0 1-.773-.424 2.769 2.769 0 0 1-.533-.581h-.082l.048.642c.023.25.034.47.034.656v3.077h-1.142V42.508h.937l.15 1.107h.055c.146-.228.324-.435.533-.622.21-.191.465-.342.766-.451.305-.114.665-.17 1.08-.17Zm-.198.957c-.52 0-.939.1-1.258.3-.315.201-.545.502-.69.903-.146.397-.224.896-.233 1.497v.22c0 .633.068 1.168.205 1.605.141.438.372.77.69.999.324.227.757.341 1.3.341.464 0 .852-.125 1.162-.376.31-.25.54-.599.69-1.045.155-.452.232-.969.232-1.552 0-.884-.173-1.586-.52-2.106-.34-.524-.867-.786-1.578-.786Zm11.71 2.912c0 .615-.08 1.165-.24 1.648-.159.483-.39.89-.69 1.223-.3.333-.665.588-1.094.766-.424.173-.904.26-1.442.26-.501 0-.962-.087-1.38-.26a3.116 3.116 0 0 1-1.081-.766c-.3-.332-.536-.74-.704-1.223-.164-.483-.246-1.032-.246-1.648 0-.82.139-1.517.417-2.092.278-.578.674-1.018 1.19-1.319.519-.305 1.136-.458 1.852-.458.683 0 1.28.153 1.79.458.516.305.915.748 1.197 1.326.287.575.43 1.27.43 2.085Zm-5.701 0c0 .602.08 1.124.239 1.566.16.442.405.784.738 1.025.333.242.761.362 1.285.362.52 0 .946-.12 1.279-.362.337-.242.585-.583.745-1.025.16-.442.239-.964.239-1.566 0-.597-.08-1.112-.24-1.545-.159-.437-.405-.774-.738-1.011-.332-.237-.763-.356-1.292-.356-.779 0-1.35.258-1.715.773-.36.515-.54 1.228-.54 2.14Zm12.017-6.877v3.035c.743.064 1.39.258 1.941.581.552.32.98.755 1.286 1.306.305.552.458 1.208.458 1.969 0 .747-.148 1.399-.445 1.955a3.26 3.26 0 0 1-1.264 1.32c-.547.323-1.206.517-1.976.58v3.254h-1.107V50.11c-.743-.054-1.39-.241-1.942-.56a3.418 3.418 0 0 1-1.278-1.32c-.305-.556-.458-1.214-.458-1.975 0-.761.146-1.417.438-1.969.296-.556.72-.993 1.271-1.312.551-.324 1.219-.515 2.003-.575v-3.035h1.073Zm-1.073 3.979c-.579.05-1.055.196-1.429.437-.373.242-.652.57-.834.985-.178.414-.266.911-.266 1.49s.09 1.078.273 1.497a2.2 2.2 0 0 0 .834.984c.374.242.848.39 1.422.445v-5.838Zm1.073.014v5.824c.574-.06 1.046-.212 1.415-.458.374-.246.65-.577.827-.992.183-.414.274-.906.274-1.476 0-.866-.208-1.543-.622-2.03-.415-.493-1.046-.782-1.894-.868Zm8.552-.985c.638 0 1.185.141 1.64.424.456.282.805.679 1.046 1.19.242.505.363 1.098.363 1.777v.704H39.17c.014.88.232 1.55.656 2.01.424.46 1.021.69 1.791.69.474 0 .893-.043 1.258-.13a6.94 6.94 0 0 0 1.135-.383v.998a5.528 5.528 0 0 1-1.128.37c-.37.077-.807.116-1.313.116-.72 0-1.349-.146-1.886-.438a3.06 3.06 0 0 1-1.245-1.299c-.296-.57-.444-1.267-.444-2.091 0-.807.135-1.504.404-2.092.273-.593.656-1.048 1.148-1.367.497-.32 1.08-.479 1.75-.479Zm-.014.93c-.606 0-1.089.198-1.449.594-.36.397-.574.95-.643 1.662h3.965a3.203 3.203 0 0 0-.212-1.176 1.651 1.651 0 0 0-.608-.793c-.273-.191-.624-.287-1.053-.287Zm7.991 6.836c-.674 0-1.269-.14-1.784-.417-.515-.278-.916-.702-1.203-1.272-.287-.57-.43-1.287-.43-2.153 0-.907.15-1.648.45-2.222.306-.578.725-1.007 1.259-1.285.533-.278 1.139-.417 1.818-.417.373 0 .733.039 1.08.116.35.073.638.167.861.28l-.342.95a5.866 5.866 0 0 0-.792-.245 3.5 3.5 0 0 0-.834-.11c-.52 0-.953.112-1.3.335-.341.224-.599.552-.772.985-.168.433-.253.966-.253 1.6 0 .605.082 1.123.246 1.551.169.428.417.757.745.984.333.224.748.335 1.245.335.396 0 .754-.04 1.073-.123.319-.086.608-.187.868-.3v1.011c-.25.128-.53.226-.84.294-.306.069-.67.103-1.095.103Zm6.713 0c-.674 0-1.269-.14-1.784-.417-.515-.278-.916-.702-1.203-1.272-.287-.57-.43-1.287-.43-2.153 0-.907.15-1.648.45-2.222.306-.578.725-1.007 1.258-1.285s1.14-.417 1.819-.417c.373 0 .733.039 1.08.116.35.073.638.167.861.28l-.342.95a5.867 5.867 0 0 0-.793-.245 3.498 3.498 0 0 0-.834-.11c-.52 0-.952.112-1.298.335-.342.224-.6.552-.773.985-.169.433-.253.966-.253 1.6 0 .605.082 1.123.246 1.551.169.428.417.757.745.984.333.224.748.335 1.245.335.396 0 .754-.04 1.073-.123.319-.086.608-.187.868-.3v1.011c-.25.128-.531.226-.84.294-.306.069-.67.103-1.095.103Zm4.792-7.63v4.71c0 .092-.002.21-.006.356-.005.142-.012.294-.021.458l-.027.465a5.852 5.852 0 0 1-.02.362l4.087-6.35h1.395V50h-1.06v-4.594a29.532 29.532 0 0 1 .027-1.23c.01-.224.016-.397.02-.52L61.1 50h-1.402v-7.492h1.08Zm14.28 3.733c0 .615-.08 1.165-.239 1.648-.16.483-.39.89-.69 1.223-.3.333-.666.588-1.094.766-.424.173-.904.26-1.442.26-.502 0-.962-.087-1.381-.26a3.118 3.118 0 0 1-1.08-.766c-.3-.332-.536-.74-.704-1.223-.164-.483-.246-1.032-.246-1.648 0-.82.139-1.517.417-2.092.278-.578.674-1.018 1.19-1.319.519-.305 1.136-.458 1.852-.458.683 0 1.28.153 1.79.458.516.305.914.748 1.197 1.326.287.575.43 1.27.43 2.085Zm-5.7 0c0 .602.08 1.124.239 1.566.16.442.405.784.738 1.025.333.242.761.362 1.285.362.52 0 .946-.12 1.278-.362.338-.242.586-.583.746-1.025.16-.442.239-.964.239-1.566 0-.597-.08-1.112-.24-1.545-.159-.437-.405-.774-.738-1.011-.332-.237-.763-.356-1.292-.356-.779 0-1.351.258-1.716.773-.36.515-.54 1.228-.54 2.14Zm8.804-3.732v3.144h4.177v-3.144h1.135V50h-1.135v-3.384h-4.177V50H77.02v-7.492h1.142Zm10.52-.123c.894 0 1.557.2 1.99.601.433.401.65 1.042.65 1.921V50h-.828l-.219-1.107h-.054c-.21.273-.429.503-.657.69a2.44 2.44 0 0 1-.792.417c-.297.091-.661.137-1.094.137-.456 0-.862-.08-1.217-.24a1.895 1.895 0 0 1-.834-.724c-.2-.324-.3-.734-.3-1.23 0-.748.295-1.322.888-1.723.592-.401 1.495-.62 2.707-.657l1.292-.054v-.458c0-.647-.14-1.1-.417-1.36-.278-.26-.67-.39-1.176-.39-.392 0-.765.057-1.121.17a7.67 7.67 0 0 0-1.012.404l-.348-.861a6.252 6.252 0 0 1 1.162-.445 5.078 5.078 0 0 1 1.38-.184Zm1.518 3.924-1.141.047c-.935.037-1.593.19-1.976.459-.383.268-.574.649-.574 1.141 0 .428.13.745.39.95.26.205.603.308 1.032.308.665 0 1.21-.185 1.633-.554.424-.369.636-.923.636-1.661v-.69ZM99.278 50h-1.155v-6.542h-2.276a35.039 35.039 0 0 1-.349 3.035c-.137.839-.31 1.525-.52 2.058-.205.528-.455.918-.751 1.169a1.57 1.57 0 0 1-1.046.369c-.123 0-.24-.007-.349-.02a1.098 1.098 0 0 1-.28-.069v-.861c.059.018.12.032.184.04.069.01.14.014.212.014.205 0 .392-.084.56-.253.174-.173.329-.432.466-.779.14-.346.266-.784.376-1.312.109-.534.205-1.16.287-1.88.086-.725.162-1.545.225-2.461h4.416V50Zm3.534-4.402h2.297c.638 0 1.169.08 1.593.239.424.16.741.396.95.71.215.315.322.705.322 1.17 0 .465-.105.868-.315 1.21-.205.342-.524.606-.957.793-.428.187-.982.28-1.661.28h-3.37v-7.492h1.141v3.09Zm4.02 2.174c0-.46-.164-.78-.492-.957-.324-.183-.777-.274-1.361-.274h-2.167v2.536h2.174c.547 0 .992-.1 1.333-.3.342-.206.513-.54.513-1.005Zm4.238-5.264v3.144h4.177v-3.144h1.135V50h-1.135v-3.384h-4.177V50h-1.141v-7.492h1.141Zm10.521-.123c.893 0 1.556.2 1.989.601.433.401.649 1.042.649 1.921V50h-.827l-.218-1.107h-.055c-.21.273-.428.503-.656.69a2.449 2.449 0 0 1-.793.417c-.297.091-.661.137-1.094.137-.456 0-.861-.08-1.217-.24a1.894 1.894 0 0 1-.834-.724c-.2-.324-.301-.734-.301-1.23 0-.748.297-1.322.889-1.723.592-.401 1.495-.62 2.707-.657l1.292-.054v-.458c0-.647-.139-1.1-.417-1.36-.278-.26-.67-.39-1.176-.39a3.65 3.65 0 0 0-1.121.17 7.703 7.703 0 0 0-1.012.404l-.348-.861a6.228 6.228 0 0 1 1.162-.445 5.078 5.078 0 0 1 1.381-.184Zm1.517 3.924-1.141.047c-.934.037-1.593.19-1.976.459-.383.268-.574.649-.574 1.141 0 .428.13.745.39.95.259.205.603.308 1.032.308.665 0 1.21-.185 1.634-.554.423-.369.635-.923.635-1.661v-.69ZM126.93 50h-1.326l2.16-3.158a2.814 2.814 0 0 1-.875-.349 1.955 1.955 0 0 1-.657-.69c-.164-.292-.246-.654-.246-1.087 0-.72.24-1.267.718-1.64.483-.38 1.119-.568 1.907-.568h3.316V50h-1.135v-3.008h-1.9L126.93 50Zm.157-5.277c0 .446.159.779.478.998.319.214.775.321 1.368.321h1.859v-2.584h-2.058c-.583 0-1.005.119-1.264.355-.255.233-.383.536-.383.91Zm17.144-2.215V50h-1.141v-6.515h-3.992V50h-1.142v-7.492h6.275Zm5.927-.137c.934 0 1.68.321 2.236.964.556.642.834 1.609.834 2.898 0 .853-.128 1.568-.383 2.147-.255.579-.616 1.016-1.08 1.312-.461.297-1.005.445-1.634.445-.397 0-.745-.053-1.046-.157a2.478 2.478 0 0 1-.773-.424 2.792 2.792 0 0 1-.533-.581h-.082l.048.642c.023.25.034.47.034.656v3.077h-1.141V42.508h.936l.151 1.107h.054c.146-.228.324-.435.533-.622.21-.191.465-.342.766-.451.305-.114.665-.17 1.08-.17Zm-.198.957c-.52 0-.939.1-1.258.3-.314.201-.544.502-.69.903-.146.397-.224.896-.233 1.497v.22c0 .633.069 1.168.205 1.605.142.438.372.77.691.999.323.227.756.341 1.299.341.464 0 .852-.125 1.162-.376.31-.25.54-.599.69-1.045.155-.452.233-.969.233-1.552 0-.884-.174-1.586-.52-2.106-.342-.524-.868-.786-1.579-.786Zm11.71 2.912a5.26 5.26 0 0 1-.239 1.648c-.16.483-.39.89-.691 1.223a3.005 3.005 0 0 1-1.094.766 3.78 3.78 0 0 1-1.442.26c-.501 0-.961-.087-1.381-.26a3.13 3.13 0 0 1-1.08-.766 3.538 3.538 0 0 1-.704-1.223c-.164-.483-.246-1.032-.246-1.648 0-.82.139-1.517.417-2.092.278-.578.674-1.018 1.189-1.319.52-.305 1.137-.458 1.853-.458.684 0 1.281.153 1.791.458a3.05 3.05 0 0 1 1.196 1.326c.287.575.431 1.27.431 2.085Zm-5.701 0c0 .602.08 1.124.239 1.566.16.442.406.784.738 1.025.333.242.761.362 1.285.362.52 0 .946-.12 1.279-.362.337-.242.585-.583.745-1.025.159-.442.239-.964.239-1.566 0-.597-.08-1.112-.239-1.545-.16-.437-.406-.774-.738-1.011-.333-.237-.764-.356-1.292-.356-.78 0-1.352.258-1.716.773-.36.515-.54 1.228-.54 2.14Zm13.152-3.732v6.528h1.073v3.555h-1.1V50h-5.305v2.59h-1.087v-3.554h.588a9.026 9.026 0 0 0 1.066-1.948c.283-.706.497-1.447.643-2.222.146-.78.223-1.565.232-2.358h3.89Zm-1.1.902h-1.778a12.822 12.822 0 0 1-.294 2.03 12.38 12.38 0 0 1-.601 1.97 7.873 7.873 0 0 1-.875 1.626h3.548V43.41Zm6.466-1.025c.894 0 1.557.2 1.99.601.433.401.649 1.042.649 1.921V50h-.827l-.219-1.107h-.055a4.125 4.125 0 0 1-.656.69 2.439 2.439 0 0 1-.793.417c-.296.091-.661.137-1.094.137a2.94 2.94 0 0 1-1.216-.24 1.894 1.894 0 0 1-.834-.724c-.201-.324-.301-.734-.301-1.23 0-.748.296-1.322.889-1.723.592-.401 1.494-.62 2.707-.657l1.292-.054v-.458c0-.647-.139-1.1-.417-1.36-.278-.26-.67-.39-1.176-.39-.392 0-.766.057-1.121.17a7.648 7.648 0 0 0-1.012.404l-.349-.861a6.282 6.282 0 0 1 1.162-.445 5.083 5.083 0 0 1 1.381-.184Zm1.518 3.924-1.142.047c-.934.037-1.592.19-1.975.459-.383.268-.575.649-.575 1.141 0 .428.13.745.39.95.26.205.604.308 1.032.308.666 0 1.21-.185 1.634-.554.424-.369.636-.923.636-1.661v-.69Zm12.236-3.801-3.117 3.643L188.508 50h-1.299l-3.281-3.8V50h-1.06v-3.8l-3.274 3.8h-1.299l3.384-3.849-3.124-3.643h1.251l3.062 3.636v-3.636h1.06v3.636l3.076-3.636h1.237Zm4.321-.123c.893 0 1.556.2 1.989.601.433.401.649 1.042.649 1.921V50h-.827l-.219-1.107h-.054a4.17 4.17 0 0 1-.657.69 2.439 2.439 0 0 1-.793.417c-.296.091-.66.137-1.093.137-.456 0-.862-.08-1.217-.24a1.894 1.894 0 0 1-.834-.724c-.201-.324-.301-.734-.301-1.23 0-.748.296-1.322.889-1.723.592-.401 1.495-.62 2.707-.657l1.292-.054v-.458c0-.647-.139-1.1-.417-1.36-.278-.26-.67-.39-1.176-.39-.392 0-.766.057-1.121.17a7.648 7.648 0 0 0-1.012.404l-.348-.861a6.228 6.228 0 0 1 1.162-.445 5.072 5.072 0 0 1 1.381-.184Zm1.517 3.924-1.141.047c-.935.037-1.593.19-1.976.459-.383.268-.574.649-.574 1.141 0 .428.13.745.389.95.26.205.604.308 1.033.308.665 0 1.21-.185 1.633-.554.424-.369.636-.923.636-1.661v-.69Zm8.176-3.801v4.71a23.274 23.274 0 0 1-.027.813l-.028.465a5.602 5.602 0 0 1-.02.362l4.088-6.35h1.394V50h-1.059v-4.594a33.153 33.153 0 0 1 .027-1.23l.02-.52L202.576 50h-1.401v-7.492h1.08Zm10.274 0h1.217l1.654 4.347c.096.256.185.502.267.739.082.232.155.456.219.67.064.214.114.421.15.622h.048a41.096 41.096 0 0 1 .656-2.037l1.566-4.341h1.223l-3.26 8.593c-.174.46-.376.86-.609 1.203a2.403 2.403 0 0 1-.834.786c-.328.187-.724.28-1.189.28-.214 0-.404-.014-.568-.04a3.482 3.482 0 0 1-.423-.083v-.91a3.918 3.918 0 0 0 .813.09c.283 0 .526-.055.731-.164.21-.105.39-.26.54-.465.151-.205.281-.449.39-.732l.41-1.052-3.001-7.506Zm11.198 7.629c-.675 0-1.27-.14-1.785-.417-.515-.278-.916-.702-1.203-1.272-.287-.57-.43-1.287-.43-2.153 0-.907.15-1.648.451-2.222.305-.578.724-1.007 1.258-1.285.533-.278 1.139-.417 1.818-.417.374 0 .734.039 1.08.116.351.073.638.167.861.28l-.341.95a5.908 5.908 0 0 0-.793-.245 3.509 3.509 0 0 0-.834-.11c-.52 0-.953.112-1.299.335-.342.224-.6.552-.773.985-.168.433-.253.966-.253 1.6 0 .605.082 1.123.246 1.551.169.428.417.757.746.984.332.224.747.335 1.244.335.396 0 .754-.04 1.073-.123.319-.086.608-.187.868-.3v1.011a3.522 3.522 0 0 1-.841.294 5.07 5.07 0 0 1-1.093.103Zm8.818-6.665h-2.468V50h-1.121v-6.528h-2.434v-.964h6.023v.964Zm4.286-1.087c.893 0 1.556.2 1.989.601.433.401.65 1.042.65 1.921V50h-.827l-.219-1.107h-.055a4.125 4.125 0 0 1-.656.69 2.439 2.439 0 0 1-.793.417c-.296.091-.661.137-1.094.137-.456 0-.861-.08-1.217-.24a1.894 1.894 0 0 1-.834-.724c-.2-.324-.3-.734-.3-1.23 0-.748.296-1.322.888-1.723.593-.401 1.495-.62 2.707-.657l1.292-.054v-.458c0-.647-.139-1.1-.417-1.36-.278-.26-.67-.39-1.175-.39-.392 0-.766.057-1.122.17a7.689 7.689 0 0 0-1.011.404l-.349-.861a6.255 6.255 0 0 1 1.162-.445 5.083 5.083 0 0 1 1.381-.184Zm1.518 3.924-1.142.047c-.934.037-1.593.19-1.976.459-.382.268-.574.649-.574 1.141 0 .428.13.745.39.95.26.205.604.308 1.032.308.665 0 1.21-.185 1.634-.554.424-.369.636-.923.636-1.661v-.69Zm4.6-3.801v3.144h4.177v-3.144h1.135V50h-1.135v-3.384h-4.177V50h-1.141v-7.492h1.141Zm14.178 3.732a5.26 5.26 0 0 1-.239 1.648c-.16.483-.39.89-.691 1.223a3.01 3.01 0 0 1-1.093.766 3.79 3.79 0 0 1-1.443.26c-.501 0-.961-.087-1.381-.26a3.13 3.13 0 0 1-1.08-.766 3.538 3.538 0 0 1-.704-1.223c-.164-.483-.246-1.032-.246-1.648 0-.82.139-1.517.417-2.092.278-.578.674-1.018 1.189-1.319.52-.305 1.137-.458 1.853-.458.684 0 1.281.153 1.791.458a3.05 3.05 0 0 1 1.196 1.326c.287.575.431 1.27.431 2.085Zm-5.701 0c0 .602.08 1.124.239 1.566.16.442.406.784.738 1.025.333.242.761.362 1.285.362.52 0 .946-.12 1.279-.362.337-.242.585-.583.745-1.025.159-.442.239-.964.239-1.566 0-.597-.08-1.112-.239-1.545-.16-.437-.406-.774-.738-1.011-.333-.237-.764-.356-1.292-.356-.78 0-1.352.258-1.716.773-.36.515-.54 1.228-.54 2.14Zm13.617-1.852c0 .47-.137.836-.41 1.1-.274.26-.627.435-1.06.527v.054c.47.064.873.233 1.21.506.342.27.513.681.513 1.237 0 .429-.103.807-.308 1.135-.205.328-.526.586-.964.773-.437.187-1.007.28-1.709.28h-3.226v-7.492h3.199c.538 0 1.012.061 1.422.184.415.119.741.315.978.588.236.274.355.643.355 1.108Zm-.93 3.425c0-.443-.168-.762-.506-.958-.332-.195-.818-.293-1.456-.293h-1.921v2.515h1.949c.629 0 1.107-.096 1.435-.287.333-.196.499-.522.499-.977Zm-.225-3.295c0-.356-.13-.62-.39-.793-.26-.178-.686-.267-1.278-.267h-1.99v2.153h1.791c.616 0 1.081-.088 1.395-.266.314-.178.472-.454.472-.827Zm7.608-2.01h1.251l-3.233 3.616L273.007 50h-1.333l-3.404-3.8V50h-1.142v-7.492h1.142v3.636l3.226-3.636Zm5.667-.123c.893 0 1.556.2 1.989.601.433.401.65 1.042.65 1.921V50h-.827l-.219-1.107h-.055a4.125 4.125 0 0 1-.656.69 2.439 2.439 0 0 1-.793.417c-.296.091-.661.137-1.094.137-.456 0-.861-.08-1.217-.24a1.894 1.894 0 0 1-.834-.724c-.2-.324-.3-.734-.3-1.23 0-.748.296-1.322.888-1.723.593-.401 1.495-.62 2.707-.657l1.292-.054v-.458c0-.647-.139-1.1-.417-1.36-.278-.26-.67-.39-1.175-.39-.392 0-.766.057-1.122.17a7.689 7.689 0 0 0-1.011.404l-.349-.861a6.255 6.255 0 0 1 1.162-.445 5.083 5.083 0 0 1 1.381-.184Zm1.518 3.924-1.142.047c-.934.037-1.593.19-1.976.459-.382.268-.574.649-.574 1.141 0 .428.13.745.39.95.26.205.604.308 1.032.308.665 0 1.21-.185 1.634-.554.424-.369.636-.923.636-1.661v-.69ZM3.999 61.385c.893 0 1.556.2 1.99.601.432.401.649 1.042.649 1.921V69H5.81l-.22-1.107h-.054c-.21.273-.428.503-.656.69a2.44 2.44 0 0 1-.793.417c-.296.091-.66.137-1.094.137-.456 0-.861-.08-1.217-.24a1.895 1.895 0 0 1-.834-.724c-.2-.324-.3-.734-.3-1.23 0-.748.296-1.322.888-1.723.593-.401 1.495-.62 2.707-.656l1.292-.055v-.458c0-.647-.139-1.1-.417-1.36-.278-.26-.67-.39-1.176-.39-.391 0-.765.057-1.12.17a7.673 7.673 0 0 0-1.012.404l-.349-.861a6.249 6.249 0 0 1 1.162-.445A5.079 5.079 0 0 1 4 61.385Zm1.518 3.924-1.142.047c-.934.037-1.593.19-1.976.459-.382.268-.574.649-.574 1.141 0 .428.13.745.39.95.26.205.604.308 1.032.308.665 0 1.21-.185 1.634-.554.424-.369.636-.923.636-1.661v-.69Zm9.413-1.921c0 .47-.137.836-.41 1.1-.274.26-.627.436-1.06.527v.054c.47.064.873.233 1.21.506.342.27.513.681.513 1.237 0 .429-.103.807-.308 1.135-.205.328-.526.586-.964.773-.437.187-1.007.28-1.709.28H8.976v-7.492h3.199c.538 0 1.011.061 1.422.184.414.119.74.315.977.588.237.274.356.643.356 1.108ZM14 66.813c0-.443-.169-.762-.506-.957-.332-.197-.818-.294-1.456-.294h-1.92v2.515h1.947c.63 0 1.108-.096 1.436-.287.333-.196.499-.522.499-.978Zm-.226-3.295c0-.356-.13-.62-.39-.793-.259-.178-.685-.267-1.278-.267h-1.989v2.153h1.791c.615 0 1.08-.089 1.395-.266.314-.178.471-.454.471-.827Zm8.347-1.046h-2.468V69h-1.12v-6.528h-2.434v-.964h6.022v.964Zm7.944 2.768c0 .616-.08 1.165-.24 1.648-.16.483-.39.89-.69 1.223-.301.333-.666.588-1.094.766-.424.173-.905.26-1.442.26-.502 0-.962-.087-1.381-.26a3.117 3.117 0 0 1-1.08-.766c-.301-.332-.536-.74-.704-1.223-.165-.483-.247-1.032-.247-1.648 0-.82.14-1.517.418-2.092.277-.578.674-1.018 1.189-1.319.52-.305 1.137-.458 1.852-.458.684 0 1.281.153 1.791.458.515.305.914.748 1.197 1.326.287.575.43 1.27.43 2.085Zm-5.702 0c0 .602.08 1.124.24 1.566.159.442.405.784.738 1.025.332.242.76.362 1.285.362.52 0 .946-.12 1.278-.362.337-.242.586-.583.745-1.025.16-.442.24-.964.24-1.566 0-.597-.08-1.112-.24-1.545-.16-.437-.405-.774-.738-1.011-.333-.237-.763-.356-1.292-.356-.78 0-1.351.258-1.716.773-.36.515-.54 1.228-.54 2.14Zm10.664 3.897c-.674 0-1.269-.14-1.784-.417-.515-.278-.916-.702-1.203-1.272-.287-.57-.43-1.287-.43-2.153 0-.907.15-1.648.45-2.222.306-.578.725-1.007 1.258-1.285.534-.278 1.14-.417 1.819-.417.373 0 .733.039 1.08.116.35.073.638.167.861.28l-.342.95a5.866 5.866 0 0 0-.793-.245 3.5 3.5 0 0 0-.834-.11c-.52 0-.952.112-1.299.335-.341.224-.599.552-.772.985-.168.433-.253.966-.253 1.6 0 .605.082 1.123.246 1.551.169.428.417.757.745.984.333.224.748.335 1.244.335.397 0 .755-.04 1.074-.123.319-.086.608-.187.868-.3v1.011c-.25.128-.531.226-.84.294-.306.069-.67.103-1.095.103Zm8.819-6.665h-2.468V69h-1.121v-6.528h-2.434v-.964h6.023v.964Zm4.368-1.1c.638 0 1.185.14 1.64.423.456.282.805.679 1.046 1.19.242.505.363 1.098.363 1.777v.704h-5.175c.014.88.232 1.55.656 2.01.424.46 1.021.69 1.791.69.474 0 .893-.043 1.258-.13a6.936 6.936 0 0 0 1.135-.383v.998a5.525 5.525 0 0 1-1.128.37c-.37.077-.807.116-1.313.116-.72 0-1.349-.146-1.886-.438a3.06 3.06 0 0 1-1.245-1.299c-.296-.57-.444-1.267-.444-2.091 0-.807.135-1.504.403-2.092.274-.593.657-1.048 1.149-1.367.497-.32 1.08-.479 1.75-.479Zm-.014.929c-.606 0-1.089.198-1.449.594-.36.397-.574.95-.643 1.662h3.965a3.201 3.201 0 0 0-.212-1.176 1.65 1.65 0 0 0-.608-.793c-.273-.191-.624-.287-1.053-.287Zm9.359-.793h1.25l-3.233 3.616L59.07 69h-1.333l-3.404-3.8V69H53.19v-7.492h1.142v3.636l3.227-3.636Zm9.324 3.732c0 .616-.08 1.165-.24 1.648-.159.483-.39.89-.69 1.223-.3.333-.665.588-1.094.766-.423.173-.904.26-1.442.26-.501 0-.962-.087-1.38-.26a3.116 3.116 0 0 1-1.08-.766c-.302-.332-.536-.74-.705-1.223-.164-.483-.246-1.032-.246-1.648 0-.82.139-1.517.417-2.092.278-.578.674-1.018 1.19-1.319.519-.305 1.136-.458 1.852-.458.683 0 1.28.153 1.79.458.516.305.915.748 1.197 1.326.287.575.43 1.27.43 2.085Zm-5.701 0c0 .602.08 1.124.239 1.566.16.442.406.784.738 1.025.333.242.761.362 1.285.362.52 0 .946-.12 1.279-.362.337-.242.585-.583.745-1.025.16-.442.239-.964.239-1.566 0-.597-.08-1.112-.24-1.545-.159-.437-.405-.774-.737-1.011-.333-.237-.764-.356-1.293-.356-.779 0-1.35.258-1.715.773-.36.515-.54 1.228-.54 2.14ZM74.464 69h-1.155v-6.542h-2.277a35.004 35.004 0 0 1-.348 3.035c-.137.839-.31 1.525-.52 2.058-.205.528-.456.918-.752 1.169a1.57 1.57 0 0 1-1.046.369c-.123 0-.239-.007-.348-.02a1.099 1.099 0 0 1-.28-.069v-.861c.058.018.12.032.184.04.068.01.139.014.212.014.205 0 .392-.084.56-.253.174-.173.328-.433.465-.779.141-.346.267-.784.376-1.312.11-.534.205-1.16.287-1.88a50.65 50.65 0 0 0 .226-2.461h4.416V69Zm9.03.137c-.715 0-1.335-.14-1.86-.417-.523-.278-.927-.704-1.21-1.279-.282-.574-.423-1.303-.423-2.187 0-.92.155-1.673.465-2.256.31-.583.738-1.014 1.285-1.292.551-.278 1.183-.417 1.893-.417.452 0 .86.046 1.224.137.37.086.681.194.937.321l-.479 1.285a6.982 6.982 0 0 0-.854-.287 3.272 3.272 0 0 0-.841-.116c-.442 0-.811.098-1.108.294-.291.196-.51.487-.656.875-.141.387-.212.868-.212 1.442 0 .556.073 1.026.219 1.408.146.379.362.666.65.862.287.191.64.287 1.059.287.415 0 .786-.05 1.114-.15.328-.1.638-.23.93-.39v1.394a3.45 3.45 0 0 1-.923.363 5.073 5.073 0 0 1-1.21.123ZM95.245 69h-1.613v-6.433c0-.214.002-.428.007-.642l.013-.63c.01-.204.02-.4.034-.587a4.382 4.382 0 0 1-.355.342c-.137.123-.282.25-.437.383l-1.149.916-.806-1.019 2.966-2.324h1.34V69Zm10.042-5.735c0 .592-.043 1.173-.13 1.743a6.49 6.49 0 0 1-.437 1.6c-.205.496-.49.936-.855 1.319a3.71 3.71 0 0 1-1.367.888c-.551.215-1.217.322-1.996.322-.196 0-.424-.012-.684-.034a4.436 4.436 0 0 1-.629-.082v-1.34c.174.05.367.09.582.123.218.027.435.04.649.04.843 0 1.499-.156 1.969-.471a2.531 2.531 0 0 0 1.005-1.299c.2-.551.314-1.178.341-1.88h-.082c-.132.22-.298.42-.499.602a2.32 2.32 0 0 1-.745.43c-.296.105-.656.158-1.08.158-.574 0-1.075-.121-1.504-.362a2.49 2.49 0 0 1-.991-1.053c-.232-.465-.349-1.023-.349-1.675 0-.706.135-1.315.404-1.825s.65-.903 1.141-1.176c.492-.278 1.071-.417 1.737-.417.501 0 .963.091 1.387.273.429.178.802.452 1.121.82.319.365.568.823.746 1.375.177.547.266 1.187.266 1.92Zm-3.5-3.063c-.506 0-.918.171-1.237.513-.319.337-.479.857-.479 1.558 0 .57.137 1.021.41 1.354.274.333.693.499 1.258.499.392 0 .729-.08 1.012-.24.287-.163.508-.37.663-.621.16-.251.239-.506.239-.766 0-.269-.038-.538-.116-.807a2.376 2.376 0 0 0-.342-.738 1.804 1.804 0 0 0-.588-.54 1.545 1.545 0 0 0-.82-.212Zm11.512 3.063c0 .592-.043 1.173-.13 1.743a6.449 6.449 0 0 1-.438 1.6 4.233 4.233 0 0 1-.854 1.319 3.71 3.71 0 0 1-1.367.888c-.552.215-1.217.322-1.996.322a7.95 7.95 0 0 1-.684-.034 4.441 4.441 0 0 1-.629-.082v-1.34c.173.05.367.09.581.123.219.027.435.04.65.04.843 0 1.499-.156 1.968-.471a2.531 2.531 0 0 0 1.005-1.299c.201-.551.315-1.178.342-1.88h-.082c-.132.22-.298.42-.499.602a2.33 2.33 0 0 1-.745.43c-.296.105-.656.158-1.08.158-.574 0-1.076-.121-1.504-.362a2.49 2.49 0 0 1-.991-1.053c-.233-.465-.349-1.023-.349-1.675 0-.706.135-1.315.403-1.825.269-.51.65-.903 1.142-1.176.492-.278 1.071-.417 1.736-.417.502 0 .964.091 1.388.273a2.98 2.98 0 0 1 1.121.82c.319.365.567.823.745 1.375.178.547.267 1.187.267 1.92Zm-3.5-3.063c-.506 0-.918.171-1.237.513-.319.337-.479.857-.479 1.558 0 .57.137 1.021.41 1.354.274.333.693.499 1.258.499.392 0 .729-.08 1.012-.24.287-.163.508-.37.663-.621.159-.251.239-.506.239-.766 0-.269-.039-.538-.116-.807a2.376 2.376 0 0 0-.342-.738 1.804 1.804 0 0 0-.588-.54 1.547 1.547 0 0 0-.82-.212Zm8.155 2.55c.643 0 1.208.116 1.695.349.493.227.875.565 1.149 1.011.273.442.41.985.41 1.627 0 .702-.148 1.308-.444 1.819-.297.505-.732.895-1.306 1.169-.574.273-1.274.41-2.099.41A7.483 7.483 0 0 1 115.89 69a4.038 4.038 0 0 1-1.169-.41v-1.45c.341.192.752.35 1.23.472.479.119.937.178 1.374.178.465 0 .864-.068 1.196-.205.333-.137.588-.346.766-.629.182-.282.274-.64.274-1.073 0-.574-.185-1.016-.554-1.326-.365-.315-.937-.472-1.716-.472a5.49 5.49 0 0 0-.875.075 7.15 7.15 0 0 0-.766.15l-.704-.416.376-4.888h5.196v1.415h-3.781l-.218 2.488c.164-.036.36-.07.587-.102.228-.037.511-.055.848-.055Zm13.679-1.32v1.265h-3.295V69h-1.613v-7.567h4.908Zm8.162 3.767c0 .63-.082 1.187-.246 1.675-.164.488-.403.9-.718 1.237a3.161 3.161 0 0 1-1.135.766c-.442.173-.941.26-1.497.26a3.81 3.81 0 0 1-1.428-.26 3.26 3.26 0 0 1-1.128-.766 3.499 3.499 0 0 1-.732-1.237c-.173-.488-.26-1.046-.26-1.675 0-.834.144-1.54.431-2.119a3.067 3.067 0 0 1 1.244-1.333c.538-.305 1.178-.458 1.921-.458.697 0 1.313.153 1.846.458.533.305.95.75 1.251 1.333.301.583.451 1.29.451 2.12Zm-5.489 0c0 .552.066 1.023.198 1.415.137.392.346.693.629.903.282.205.647.307 1.094.307.446 0 .811-.102 1.093-.307.283-.21.49-.51.622-.903.133-.392.199-.863.199-1.415 0-.551-.066-1.018-.199-1.401-.132-.388-.339-.681-.622-.882-.282-.205-.649-.308-1.1-.308-.666 0-1.151.224-1.456.67-.306.447-.458 1.087-.458 1.921Zm13.514-3.766v6.323h1.094v3.91h-1.483V69h-5.223v2.666h-1.483v-3.91h.615a8.494 8.494 0 0 0 .957-1.86c.26-.683.46-1.403.601-2.16a16.35 16.35 0 0 0 .274-2.303h4.648Zm-1.592 1.23h-1.675a14.844 14.844 0 0 1-.281 1.839 12.517 12.517 0 0 1-.512 1.743 8.107 8.107 0 0 1-.739 1.51h3.207v-5.092Zm7.061-1.374c.957 0 1.679.212 2.167.636.492.424.738 1.084.738 1.982V69h-1.141l-.308-1.073h-.055a3.893 3.893 0 0 1-.663.676c-.228.178-.492.31-.793.397-.296.091-.658.137-1.087.137a2.85 2.85 0 0 1-1.209-.246 1.92 1.92 0 0 1-.841-.766c-.205-.342-.308-.775-.308-1.299 0-.78.289-1.365.868-1.757.584-.392 1.463-.608 2.639-.65l1.312-.047v-.396c0-.524-.123-.898-.369-1.121-.241-.224-.583-.335-1.025-.335-.378 0-.745.054-1.101.164a7.79 7.79 0 0 0-1.039.403l-.519-1.135a5.831 5.831 0 0 1 1.257-.478 5.86 5.86 0 0 1 1.477-.185Zm1.313 4.095-.978.034c-.802.027-1.365.164-1.688.41-.324.246-.486.584-.486 1.012 0 .373.112.647.335.82.223.169.517.253.882.253.556 0 1.016-.157 1.381-.472.369-.319.554-.786.554-1.401v-.656Z" fill="#656565"/></svg>